<?xml version="1.0" encoding="utf-8"?>
<!-- Generator: Adobe Illustrator 20.0.0, SVG Export Plug-In . SVG Version: 6.00 Build 0)  -->
<svg version="1.2" baseProfile="tiny" id="Layer_1" xmlns="http://www.w3.org/2000/svg" xmlns:xlink="http://www.w3.org/1999/xlink"
	 x="0px" y="0px" viewBox="0 0 253 243" overflow="scroll" xml:space="preserve">
<path fill="#FFFFFF" d="M126.3,15.5C66.9,15.5,18.8,63.6,18.8,123s48.1,107.5,107.5,107.5S233.8,182.4,233.8,123
	S185.7,15.5,126.3,15.5z M126.3,219.5c-53.3,0-96.5-43.2-96.5-96.5S73,26.5,126.3,26.5s96.5,43.2,96.5,96.5S179.6,219.5,126.3,219.5
	z"/>
<path fill="#FFFFFF" d="M126,24c-54.7,0-99,44.3-99,99s44.3,99,99,99s99-44.3,99-99S180.7,24,126,24z M207.2,114.1
	c0,19.3-16.2,34.9-36.2,34.9c-20,0-36.2-15.6-36.2-34.9c0-0.7,0-1.3,0.1-1.9h-16c0,0.6,0,1.3,0,1.9c0,19.3-16.2,34.9-36.2,34.9
	s-36.2-15.6-36.2-34.9c0-0.7,0-1.3,0.1-1.9h-5.8V102h172.1v10.2h-5.8C207.2,112.8,207.2,113.4,207.2,114.1z"/>
</svg>
