<?xml version="1.0" encoding="utf-8"?>
<!-- Generator: Adobe Illustrator 20.0.0, SVG Export Plug-In . SVG Version: 6.00 Build 0)  -->
<svg version="1.1" id="Layer_1" xmlns="http://www.w3.org/2000/svg" xmlns:xlink="http://www.w3.org/1999/xlink" x="0px" y="0px"
	 viewBox="0 0 24 24" style="enable-background:new 0 0 24 24;" xml:space="preserve">
<style type="text/css">
	.st0{fill:#FFFFFF;}
</style>
<path class="st0" d="M21.3,18.7c0.4,0.4,0.7,0.9,0.7,1.6c0,1.1-0.9,2-2,2c-0.7,0-1.1-0.2-1.6-0.7l-6.2-6.2L6,21.6
	c-0.4,0.4-0.9,0.7-1.6,0.7c-1.1,0-2-0.9-2-2c0-0.7,0.2-1.1,0.7-1.6l6.2-6.2L3.1,6.3C2.6,5.8,2.4,5.4,2.4,4.7c0-1.1,0.9-2,2-2
	c0.7,0,1.1,0.2,1.6,0.7l6.2,6.2l6.2-6.2C18.8,3,19.3,2.7,20,2.7c1.1,0,2,0.9,2,2c0,0.7-0.2,1.1-0.7,1.6l-6.2,6.2L21.3,18.7z"/>
</svg>
