<?xml version="1.0" encoding="utf-8"?>
<!-- Generator: Adobe Illustrator 19.1.1, SVG Export Plug-In . SVG Version: 6.00 Build 0)  -->
<svg version="1.1" id="Layer_1" xmlns="http://www.w3.org/2000/svg" xmlns:xlink="http://www.w3.org/1999/xlink" x="0px" y="0px"
	 width="108.2px" height="107.7px" viewBox="-251 343.3 108.2 107.7" style="enable-background:new -251 343.3 108.2 107.7;"
	 xml:space="preserve">
<style type="text/css">
	.st0{fill:#FFFFFF;}
</style>
<g>
	<path class="st0" d="M-155.2,397.4c0-5.9-4.3-10.8-9.9-12c0,0,0,0,0,0c0-8.5-7.1-15.4-15.9-15.4c-3.3,0-6.3,1-8.9,2.6
		c-3.2-5.1-9-8.5-15.6-8.5c-9.8,0-17.8,7.5-18.2,16.9c-7.8,0.4-14,6.6-14,14.3c0,7.5,5.9,13.6,13.5,14.3c0.4,0.1,0.8,0.2,1.2,0.2
		h55.1c0.4,0,0.9-0.1,1.3-0.2C-160.2,408.9-155.2,403.7-155.2,397.4z"/>
</g>
<g>
	<path class="st0" d="M-215.1,429.4c-0.6,1.2-1.9,1.7-3,1.2l0,0c-1.1-0.5-1.6-1.9-1-3l5.8-12.4c0.6-1.2,1.9-1.7,3-1.2l0,0
		c1.1,0.5,1.6,1.9,1,3L-215.1,429.4z"/>
</g>
<g>
	<path class="st0" d="M-199.2,429.4c-0.6,1.2-1.9,1.7-3,1.2l0,0c-1.1-0.5-1.6-1.9-1-3l5.8-12.4c0.6-1.2,1.9-1.7,3-1.2l0,0
		c1.1,0.5,1.6,1.9,1,3L-199.2,429.4z"/>
</g>
<g>
	<path class="st0" d="M-183.4,429.4c-0.6,1.2-1.9,1.7-3,1.2l0,0c-1.1-0.5-1.6-1.9-1-3l5.8-12.4c0.6-1.2,1.9-1.7,3-1.2l0,0
		c1.1,0.5,1.6,1.9,1,3L-183.4,429.4z"/>
</g>
</svg>
