<?xml version="1.0" encoding="utf-8"?>
<!-- Generator: Adobe Illustrator 20.0.0, SVG Export Plug-In . SVG Version: 6.00 Build 0)  -->
<svg version="1.1" id="Layer_1" xmlns="http://www.w3.org/2000/svg" xmlns:xlink="http://www.w3.org/1999/xlink" x="0px" y="0px"
	 viewBox="0 0 253 243" style="enable-background:new 0 0 253 243;" xml:space="preserve">
<style type="text/css">
	.st0{fill:#FFFFFF;}
</style>
<path class="st0" d="M126.3,15.5C66.9,15.5,18.8,63.6,18.8,123s48.1,107.5,107.5,107.5S233.8,182.4,233.8,123S185.7,15.5,126.3,15.5
	z M126.3,219.5c-53.3,0-96.5-43.2-96.5-96.5S73,26.5,126.3,26.5s96.5,43.2,96.5,96.5S179.6,219.5,126.3,219.5z"/>
<path class="st0" d="M126,24c-54.1,0-98,43.9-98,98s43.9,98,98,98s98-43.9,98-98S180.1,24,126,24z M126.3,62.5
	c19.5,0,35.2,17,35.2,38s-15.8,38.1-35.2,38.1s-35.1-17-35.1-38.1S106.8,62.5,126.3,62.5z M126.6,214.7c-25.5,0-48.4-12-64-30.9
	c7.4-21.5,25.6-36.7,46.9-36.7h33.3c21.5,0,39.8,15.4,47.1,37.3C174.4,203,151.8,214.7,126.6,214.7z"/>
</svg>
