<?xml version="1.0" encoding="utf-8"?>
<!-- Generator: Adobe Illustrator 20.0.0, SVG Export Plug-In . SVG Version: 6.00 Build 0)  -->
<svg version="1.1" id="Layer_1" xmlns="http://www.w3.org/2000/svg" xmlns:xlink="http://www.w3.org/1999/xlink" x="0px" y="0px"
	 viewBox="0 0 262 340" style="enable-background:new 0 0 262 340;" xml:space="preserve">
<style type="text/css">
	.st0{fill:#FFFFFF;stroke:#000000;stroke-width:6;stroke-miterlimit:10;}
</style>
<path class="st0" d="M172.2,141.3c20.4-13.1,33.9-35.9,33.9-61.9c0-40.6-32.9-73.6-73.6-73.6C91.9,5.9,59,38.8,59,79.4
	c0,26,13.5,48.8,33.9,61.9c-48,4.3-85.7,44.7-85.7,93.8v76.4l0.2,1.2l5.3,1.6c49.6,15.5,92.6,20.7,128.1,20.7
	c69.2,0,109.3-19.8,111.8-21l4.9-2.5h0.5v-76.4C257.9,186,220.2,145.6,172.2,141.3z"/>
</svg>
