<?xml version="1.0" encoding="utf-8"?>
<!-- Generator: Adobe Illustrator 20.0.0, SVG Export Plug-In . SVG Version: 6.00 Build 0)  -->
<svg version="1.1" id="Layer_1" xmlns="http://www.w3.org/2000/svg" xmlns:xlink="http://www.w3.org/1999/xlink" x="0px" y="0px"
	 width="244px" height="259px" viewBox="0 0 244 259" style="enable-background:new 0 0 244 259;" xml:space="preserve">
<style type="text/css">
	.st0{fill:#BDAFAB;}
	.st1{fill:#BBE0C4;}
	.st2{fill:#69C7C2;}
	.st3{fill:#6BA8DB;}
</style>
<g>
</g>
<g id="Rainbow">
	<path class="st0" d="M120,56.9C174.4,56,221,116.3,235.7,199l-5.9,0.1c-12-77.6-55.1-134.9-105.4-134S33,124.5,23.3,202.4L9,202.6
		C21,119.5,65.7,57.8,120,56.9z"/>
	<path class="st1" d="M124.4,65.1c50.3-0.8,93.3,56.5,105.4,134l-4.8,0.1c-10.4-71.1-49.5-123.8-95.5-123.1
		c-45.8,0.7-83.2,54.6-91.4,126l-14.8,0.2C33,124.5,74.1,65.9,124.4,65.1z"/>
	<path class="st2" d="M129.5,76.1c46-0.7,85,52,95.5,123.1l-4.3,0.1c-9.2-64.5-44.8-112.4-86.3-111.7C92.9,88.2,59,137.1,51.7,201.9
		l-13.6,0.3C46.3,130.7,83.7,76.9,129.5,76.1z"/>
	<path class="st3" d="M134.3,87.6c41.6-0.6,77,47.2,86.3,111.7h-5.4c-7.8-59.4-40.2-104.1-78.4-103.5c-38,0.6-69.1,46.3-74.9,106
		l-10.3,0.1C59,137.2,93,88.2,134.3,87.6z"/>
</g>
</svg>
