<?xml version="1.0" encoding="utf-8"?>
<!-- Generator: Adobe Illustrator 20.0.0, SVG Export Plug-In . SVG Version: 6.00 Build 0)  -->
<svg version="1.1" id="Capa_1" xmlns="http://www.w3.org/2000/svg" xmlns:xlink="http://www.w3.org/1999/xlink" x="0px" y="0px"
	 viewBox="0 0 512 512" style="enable-background:new 0 0 512 512;" xml:space="preserve">
<style type="text/css">
	.st0{fill:#FFFFFF;}
</style>
<g>
	<g>
		<path class="st0" d="M506.3,244.5c0,3.6-1.5,6.6-4.4,8.7c-3.3,2.2-6.7,2.7-10.4,1.6l-183.4-62.8c-4.4-1.5-6.9-4.4-7.6-8.7
			c-0.7-4.4,0.7-7.8,4.4-10.4l43.1-30.6l7.1-5.5c-12.7-10.2-27-18.1-42.8-23.7c-15.8-5.6-32.7-8.5-50.5-8.5c-20.7,0-40.3,4-58.7,12
			c-18.4,8-34.4,18.8-48,32.5c-13.6,13.6-24.5,29.7-32.5,48s-12,37.9-12,58.7c0,20.7,4,40.3,12,58.7c8,18.4,18.8,34.4,32.5,48
			c13.6,13.6,29.7,24.5,48,32.5c18.4,8,37.9,12,58.7,12c25.5,0,49.3-5.8,71.5-17.5c22.2-11.6,40.2-28,54-49.1c2.2-3.3,5.2-5.3,9-6
			c3.8-0.7,7.2,0,10.1,2.2l64.4,44.8c2.5,1.5,4.2,4.2,4.9,8.2c1.1,2.9,0.5,6-1.6,9.3c-12,17.8-25.8,33.8-41.5,47.8
			c-15.6,14-32.6,25.8-50.8,35.5c-18.2,9.6-37.5,17-57.9,22.1c-20.4,5.1-41.1,7.6-62.2,7.6c-35.3,0-68.5-6.7-99.6-20.2
			c-31.1-13.5-58.2-31.7-81.3-54.9s-41.4-50.2-54.9-81.3C12.5,324.5,5.7,291.3,5.7,256s6.7-68.5,20.2-99.6s31.7-58.2,54.9-81.3
			s50.2-41.4,81.3-54.9S226.4,0,261.7,0c35.3,0,68.3,6.7,99.1,20.2c30.7,13.5,57.8,31.8,81.1,55.1l3.3-2.7L488.3,42
			c3.3-2.5,7.1-2.9,11.5-1.1c4,2.5,6,5.8,6,9.8L506.3,244.5z"/>
	</g>
</g>
</svg>
