<?xml version="1.0" encoding="utf-8"?>
<!-- Generator: Adobe Illustrator 20.0.0, SVG Export Plug-In . SVG Version: 6.00 Build 0)  -->
<svg version="1.1" id="Capa_1" xmlns="http://www.w3.org/2000/svg" xmlns:xlink="http://www.w3.org/1999/xlink" x="0px" y="0px"
	 viewBox="0 0 586 482" style="enable-background:new 0 0 586 482;" xml:space="preserve">
<style type="text/css">
	.st0{fill:#FFFFFF;}
</style>
<path class="st0" d="M532,88H53.7C24.9,88,1.4,71.8,1.4,52V39.4C1.3,19.6,24.9,3.5,53.7,3.5H532c28.8,0,52.3,16.1,52.3,35.9V52
	C584.3,71.8,560.8,88,532,88z"/>
<path class="st0" d="M532,282.7H53.7c-28.8,0-52.3-16.1-52.3-35.9v-12.6c0-19.8,23.5-35.9,52.3-35.9H532c28.8,0,52.3,16.1,52.3,35.9
	v12.6C584.3,266.5,560.8,282.7,532,282.7z"/>
<path class="st0" d="M532,477.5H53.7c-28.8,0-52.3-16.1-52.3-35.9V429c0-19.8,23.5-35.9,52.3-35.9H532c28.8,0,52.3,16.1,52.3,35.9
	v12.6C584.3,461.4,560.8,477.5,532,477.5z"/>
</svg>
