<?xml version="1.0" encoding="utf-8"?>
<!-- Generator: Adobe Illustrator 20.0.0, SVG Export Plug-In . SVG Version: 6.00 Build 0)  -->
<svg version="1.1" id="Layer_1" xmlns="http://www.w3.org/2000/svg" xmlns:xlink="http://www.w3.org/1999/xlink" x="0px" y="0px"
	 width="108.2px" height="107.7px" viewBox="0 0 108.2 107.7" style="enable-background:new 0 0 108.2 107.7;" xml:space="preserve"
	>
<style type="text/css">
	.st0{fill:#FFC200;}
	.st1{fill:#D6D6D6;stroke:#FFFFFF;stroke-width:2;stroke-miterlimit:10;}
	.st2{fill:#D6D6D6;}
</style>
<path class="st0" d="M87.1,51c0,11.1-9.4,20.1-21,20.1c-3.6,0-6.9-0.9-9.9-2.4H64c0.3,0,0.7,0,1-0.1c4.8-0.5,8.5-4.3,8.5-9
	c0-4.4-3.2-8-7.5-8.9l0,0c0-6.3-5.3-11.5-11.9-11.5c-2.2,0-4.3,0.6-6.1,1.6c3.6-6,10.4-9.9,18.1-9.9C77.7,30.9,87.1,39.9,87.1,51z"
	/>
<path class="st0" d="M69.5,23.8c0,1.7-1.4,3.1-3.2,3.1l0,0c-1.8,0-3.2-1.4-3.2-3.1v-3.6c0-1.7,1.4-3.1,3.2-3.1l0,0
	c1.8,0,3.2,1.4,3.2,3.1V23.8z"/>
<path class="st0" d="M69.5,81.7c0,1.7-1.4,3.1-3.2,3.1l0,0c-1.8,0-3.2-1.4-3.2-3.1v-3.6c0-1.7,1.4-3.1,3.2-3.1l0,0
	c1.8,0,3.2,1.4,3.2,3.1V81.7z"/>
<path class="st0" d="M94.5,47.9c-1.8,0-3.2,1.4-3.2,3.1l0,0c0,1.7,1.4,3.1,3.2,3.1h3.8c1.8,0,3.2-1.4,3.2-3.1l0,0
	c0-1.7-1.4-3.1-3.2-3.1H94.5z"/>
<path class="st0" d="M90.1,66.9c-1.3-1.2-3.3-1.1-4.5,0.1l0,0c-1.2,1.2-1.2,3.2,0.1,4.3l2.7,2.5c1.3,1.2,3.3,1.1,4.5-0.1l0,0
	c1.2-1.2,1.2-3.2-0.1-4.4L90.1,66.9z"/>
<path class="st0" d="M46.4,26.9c-1.3-1.2-3.3-1.1-4.5,0.1l0,0c-1.2,1.2-1.2,3.2,0.1,4.3l2.7,2.5c1.3,1.2,3.3,1.1,4.5-0.1l0,0
	c1.2-1.2,1.2-3.2-0.1-4.3L46.4,26.9z"/>
<path class="st0" d="M88.4,26.9c1.3-1.2,3.3-1.1,4.5,0.1l0,0c1.2,1.2,1.2,3.2-0.1,4.3l-2.7,2.5c-1.3,1.2-3.3,1.1-4.5-0.1l0,0
	c-1.2-1.2-1.2-3.2,0.1-4.3L88.4,26.9z"/>
<g>
	<path class="st1" d="M73,59.5c0-4.4-3.2-8-7.5-8.9l0,0c0-6.3-5.3-11.5-11.9-11.5c-2.5,0-4.8,0.7-6.7,2c-2.4-3.8-6.8-6.3-11.7-6.3
		c-7.4,0-13.4,5.6-13.7,12.6C15.6,47.7,11,52.3,11,58c0,5.6,4.5,10.1,10.1,10.6c0.3,0.1,0.6,0.1,0.9,0.1h41.5c0.3,0,0.7,0,1-0.1
		C69.3,68.1,73,64.2,73,59.5z"/>
</g>
<g>
	<path class="st2" d="M24.2,84.1c-0.4,0.9-1.4,1.3-2.3,0.9l0,0c-0.8-0.4-1.2-1.4-0.8-2.3l4.4-9.2c0.4-0.9,1.4-1.3,2.3-0.9l0,0
		c0.8,0.4,1.2,1.4,0.8,2.3L24.2,84.1z"/>
</g>
<g>
	<path class="st2" d="M36.2,84.1c-0.4,0.9-1.4,1.3-2.3,0.9l0,0c-0.8-0.4-1.2-1.4-0.8-2.3l4.4-9.2c0.4-0.9,1.4-1.3,2.3-0.9l0,0
		c0.8,0.4,1.2,1.4,0.8,2.3L36.2,84.1z"/>
</g>
<g>
	<path class="st2" d="M48.1,84.1c-0.4,0.9-1.4,1.3-2.3,0.9l0,0c-0.8-0.4-1.2-1.4-0.8-2.3l4.4-9.2c0.4-0.9,1.4-1.3,2.3-0.9l0,0
		c0.8,0.4,1.2,1.4,0.8,2.3L48.1,84.1z"/>
</g>
</svg>
