<?xml version="1.0" encoding="utf-8"?>
<!-- Generator: Adobe Illustrator 20.0.0, SVG Export Plug-In . SVG Version: 6.00 Build 0)  -->
<svg version="1.1" id="Layer_1" xmlns="http://www.w3.org/2000/svg" xmlns:xlink="http://www.w3.org/1999/xlink" x="0px" y="0px"
	 width="108.2px" height="107.7px" viewBox="0 0 108.2 107.7" style="enable-background:new 0 0 108.2 107.7;" xml:space="preserve"
	>
<style type="text/css">
	.st0{fill:#F9C900;}
</style>
<g>
	<circle class="st0" cx="53.4" cy="53.9" r="22.7"/>
	<path class="st0" d="M57,23.2c0,1.9-1.6,3.5-3.5,3.5l0,0c-1.9,0-3.5-1.6-3.5-3.5v-4.1c0-1.9,1.6-3.5,3.5-3.5l0,0
		c1.9,0,3.5,1.6,3.5,3.5V23.2z"/>
	<path class="st0" d="M57,88.5c0,1.9-1.6,3.5-3.5,3.5l0,0c-1.9,0-3.5-1.6-3.5-3.5v-4.1c0-1.9,1.6-3.5,3.5-3.5l0,0
		c1.9,0,3.5,1.6,3.5,3.5V88.5z"/>
	<path class="st0" d="M84.1,50.3c-1.9,0-3.5,1.6-3.5,3.5l0,0c0,1.9,1.6,3.5,3.5,3.5h4.1c1.9,0,3.5-1.6,3.5-3.5l0,0
		c0-1.9-1.6-3.5-3.5-3.5H84.1z"/>
	<path class="st0" d="M18.9,50.3c-1.9,0-3.5,1.6-3.5,3.5l0,0c0,1.9,1.6,3.5,3.5,3.5H23c1.9,0,3.5-1.6,3.5-3.5l0,0
		c0-1.9-1.6-3.5-3.5-3.5H18.9z"/>
	<path class="st0" d="M79.3,71.8c-1.4-1.3-3.6-1.3-4.9,0.1l0,0c-1.3,1.4-1.3,3.6,0.1,4.9l3,2.8c1.4,1.3,3.6,1.3,4.9-0.1l0,0
		c1.3-1.4,1.3-3.6-0.1-4.9L79.3,71.8z"/>
	<path class="st0" d="M32.1,26.7c-1.4-1.3-3.6-1.3-4.9,0.1l0,0c-1.3,1.4-1.3,3.6,0.1,4.9l3,2.8c1.4,1.3,3.6,1.3,4.9-0.1l0,0
		c1.3-1.4,1.3-3.6-0.1-4.9L32.1,26.7z"/>
	<path class="st0" d="M30.3,71.8c1.4-1.3,3.6-1.3,4.9,0.1l0,0c1.3,1.4,1.3,3.6-0.1,4.9l-3,2.8c-1.4,1.3-3.6,1.3-4.9-0.1l0,0
		c-1.3-1.4-1.3-3.6,0.1-4.9L30.3,71.8z"/>
	<path class="st0" d="M77.5,26.7c1.4-1.3,3.6-1.3,4.9,0.1l0,0c1.3,1.4,1.3,3.6-0.1,4.9l-3,2.8c-1.4,1.3-3.6,1.3-4.9-0.1l0,0
		c-1.3-1.4-1.3-3.6,0.1-4.9L77.5,26.7z"/>
</g>
</svg>
