<?xml version="1.0" encoding="utf-8"?>
<!-- Generator: Adobe Illustrator 19.1.1, SVG Export Plug-In . SVG Version: 6.00 Build 0)  -->
<svg version="1.1" id="Layer_1" xmlns="http://www.w3.org/2000/svg" xmlns:xlink="http://www.w3.org/1999/xlink" x="0px" y="0px"
	 width="108.2px" height="107.7px" viewBox="-251 343.3 108.2 107.7" style="enable-background:new -251 343.3 108.2 107.7;"
	 xml:space="preserve">
<style type="text/css">
	.st0{fill:#FFFFFF;}
	.st1{fill:none;stroke:#FFFFFF;stroke-width:2;stroke-miterlimit:10;}
</style>
<path class="st0" d="M-165.4,397.4c0,11.1-9.4,20.1-21,20.1c-3.6,0-6.9-0.9-9.9-2.4h7.8c0.3,0,0.7,0,1-0.1c4.8-0.5,8.5-4.3,8.5-9
	c0-4.4-3.2-8-7.5-8.9c0,0,0,0,0,0c0-6.3-5.3-11.5-11.9-11.5c-2.2,0-4.3,0.6-6.1,1.6c3.6-6,10.4-9.9,18.1-9.9
	C-174.8,377.3-165.4,386.3-165.4,397.4z"/>
<path class="st0" d="M-183.1,370.2c0,1.7-1.4,3.1-3.2,3.1l0,0c-1.8,0-3.2-1.4-3.2-3.1v-3.6c0-1.7,1.4-3.1,3.2-3.1l0,0
	c1.8,0,3.2,1.4,3.2,3.1V370.2z"/>
<path class="st0" d="M-183.1,428.1c0,1.7-1.4,3.1-3.2,3.1l0,0c-1.8,0-3.2-1.4-3.2-3.1v-3.6c0-1.7,1.4-3.1,3.2-3.1l0,0
	c1.8,0,3.2,1.4,3.2,3.1V428.1z"/>
<path class="st0" d="M-158,394.2c-1.8,0-3.2,1.4-3.2,3.1l0,0c0,1.7,1.4,3.1,3.2,3.1h3.8c1.8,0,3.2-1.4,3.2-3.1l0,0
	c0-1.7-1.4-3.1-3.2-3.1H-158z"/>
<path class="st0" d="M-162.4,413.2c-1.3-1.2-3.3-1.1-4.5,0.1l0,0c-1.2,1.2-1.2,3.2,0.1,4.3l2.7,2.5c1.3,1.2,3.3,1.1,4.5-0.1l0,0
	c1.2-1.2,1.2-3.2-0.1-4.4L-162.4,413.2z"/>
<path class="st0" d="M-206.1,373.3c-1.3-1.2-3.3-1.1-4.5,0.1l0,0c-1.2,1.2-1.2,3.2,0.1,4.3l2.7,2.5c1.3,1.2,3.3,1.1,4.5-0.1l0,0
	c1.2-1.2,1.2-3.2-0.1-4.3L-206.1,373.3z"/>
<path class="st0" d="M-164.1,373.3c1.3-1.2,3.3-1.1,4.5,0.1l0,0c1.2,1.2,1.2,3.2-0.1,4.3l-2.7,2.5c-1.3,1.2-3.3,1.1-4.5-0.1l0,0
	c-1.2-1.2-1.2-3.2,0.1-4.3L-164.1,373.3z"/>
<g>
	<path class="st1" d="M-179.5,405.9c0-4.4-3.2-8-7.5-8.9c0,0,0,0,0,0c0-6.3-5.3-11.5-11.9-11.5c-2.5,0-4.8,0.7-6.7,2
		c-2.4-3.8-6.8-6.3-11.7-6.3c-7.4,0-13.4,5.6-13.7,12.6c-5.9,0.3-10.5,4.9-10.5,10.6c0,5.6,4.5,10.1,10.1,10.6
		c0.3,0.1,0.6,0.1,0.9,0.1h41.5c0.3,0,0.7,0,1-0.1C-183.2,414.5-179.5,410.6-179.5,405.9z"/>
</g>
</svg>
