<?xml version="1.0" encoding="utf-8"?>
<!-- Generator: Adobe Illustrator 20.0.0, SVG Export Plug-In . SVG Version: 6.00 Build 0)  -->
<svg version="1.1" id="Layer_1" xmlns="http://www.w3.org/2000/svg" xmlns:xlink="http://www.w3.org/1999/xlink" x="0px" y="0px"
	 width="108.2px" height="107.7px" viewBox="0 0 108.2 107.7" style="enable-background:new 0 0 108.2 107.7;" xml:space="preserve"
	>
<style type="text/css">
	.st0{fill:#FFCE00;}
	.st1{fill:#DDDDDD;stroke:#FFFFFF;stroke-width:2;stroke-miterlimit:10;}
</style>
<path class="st0" d="M85.6,52.4c0,11.1-9.4,20.1-21,20.1c-3.6,0-6.9-0.9-9.9-2.4h7.8c0.3,0,0.7,0,1-0.1c4.8-0.5,8.5-4.3,8.5-9
	c0-4.4-3.2-8-7.5-8.9l0,0c0-6.3-5.3-11.5-11.9-11.5c-2.2,0-4.3,0.6-6.1,1.6c3.6-6,10.4-9.9,18.1-9.9C76.2,32.3,85.6,41.3,85.6,52.4z
	"/>
<path class="st0" d="M67.9,25.2c0,1.7-1.4,3.1-3.2,3.1l0,0c-1.8,0-3.2-1.4-3.2-3.1v-3.6c0-1.7,1.4-3.1,3.2-3.1l0,0
	c1.8,0,3.2,1.4,3.2,3.1V25.2z"/>
<path class="st0" d="M67.9,83.1c0,1.7-1.4,3.1-3.2,3.1l0,0c-1.8,0-3.2-1.4-3.2-3.1v-3.6c0-1.7,1.4-3.1,3.2-3.1l0,0
	c1.8,0,3.2,1.4,3.2,3.1V83.1z"/>
<path class="st0" d="M93,49.2c-1.8,0-3.2,1.4-3.2,3.1l0,0c0,1.7,1.4,3.1,3.2,3.1h3.8c1.8,0,3.2-1.4,3.2-3.1l0,0
	c0-1.7-1.4-3.1-3.2-3.1H93z"/>
<path class="st0" d="M88.6,68.2c-1.3-1.2-3.3-1.1-4.5,0.1l0,0c-1.2,1.2-1.2,3.2,0.1,4.3l2.7,2.5c1.3,1.2,3.3,1.1,4.5-0.1l0,0
	c1.2-1.2,1.2-3.2-0.1-4.4L88.6,68.2z"/>
<path class="st0" d="M44.9,28.3c-1.3-1.2-3.3-1.1-4.5,0.1l0,0c-1.2,1.2-1.2,3.2,0.1,4.3l2.7,2.5c1.3,1.2,3.3,1.1,4.5-0.1l0,0
	c1.2-1.2,1.2-3.2-0.1-4.3L44.9,28.3z"/>
<path class="st0" d="M86.9,28.3c1.3-1.2,3.3-1.1,4.5,0.1l0,0c1.2,1.2,1.2,3.2-0.1,4.3l-2.7,2.5c-1.3,1.2-3.3,1.1-4.5-0.1l0,0
	c-1.2-1.2-1.2-3.2,0.1-4.3L86.9,28.3z"/>
<g>
	<path class="st1" d="M71.5,60.9c0-4.4-3.2-8-7.5-8.9l0,0c0-6.3-5.3-11.5-11.9-11.5c-2.5,0-4.8,0.7-6.7,2c-2.4-3.8-6.8-6.3-11.7-6.3
		c-7.4,0-13.4,5.6-13.7,12.6c-5.9,0.3-10.5,4.9-10.5,10.6C9.5,65,14,69.5,19.6,70c0.3,0.1,0.6,0.1,0.9,0.1H62c0.3,0,0.7,0,1-0.1
		C67.8,69.5,71.5,65.6,71.5,60.9z"/>
</g>
</svg>
