<?xml version="1.0" encoding="utf-8"?>
<!-- Generator: Adobe Illustrator 19.1.1, SVG Export Plug-In . SVG Version: 6.00 Build 0)  -->
<svg version="1.1" id="Layer_1" xmlns="http://www.w3.org/2000/svg" xmlns:xlink="http://www.w3.org/1999/xlink" x="0px" y="0px"
	 width="108.2px" height="107.7px" viewBox="-251 343.3 108.2 107.7" style="enable-background:new -251 343.3 108.2 107.7;"
	 xml:space="preserve">
<style type="text/css">
	.st0{fill:#FFFFFF;}
	.st1{opacity:0.5;}
	.st2{fill:#FFFFFF;stroke:#FFFFFF;stroke-width:2;stroke-miterlimit:10;}
</style>
<path class="st0" d="M-164.9,397c0,11.1-9.4,20.1-21,20.1c-3.6,0-6.9-0.9-9.9-2.4h7.8c0.3,0,0.7,0,1-0.1c4.8-0.5,8.5-4.3,8.5-9
	c0-4.4-3.2-8-7.5-8.9c0,0,0,0,0,0c0-6.3-5.3-11.5-11.9-11.5c-2.2,0-4.3,0.6-6.1,1.6c3.6-6,10.4-9.9,18.1-9.9
	C-174.3,376.9-164.9,385.9-164.9,397z"/>
<path class="st0" d="M-182.5,369.8c0,1.7-1.4,3.1-3.2,3.1l0,0c-1.8,0-3.2-1.4-3.2-3.1v-3.6c0-1.7,1.4-3.1,3.2-3.1l0,0
	c1.8,0,3.2,1.4,3.2,3.1V369.8z"/>
<path class="st0" d="M-182.5,427.7c0,1.7-1.4,3.1-3.2,3.1l0,0c-1.8,0-3.2-1.4-3.2-3.1v-3.6c0-1.7,1.4-3.1,3.2-3.1l0,0
	c1.8,0,3.2,1.4,3.2,3.1V427.7z"/>
<path class="st0" d="M-157.5,393.9c-1.8,0-3.2,1.4-3.2,3.1l0,0c0,1.7,1.4,3.1,3.2,3.1h3.8c1.8,0,3.2-1.4,3.2-3.1l0,0
	c0-1.7-1.4-3.1-3.2-3.1H-157.5z"/>
<path class="st0" d="M-161.9,412.9c-1.3-1.2-3.3-1.1-4.5,0.1l0,0c-1.2,1.2-1.2,3.2,0.1,4.3l2.7,2.5c1.3,1.2,3.3,1.1,4.5-0.1l0,0
	c1.2-1.2,1.2-3.2-0.1-4.4L-161.9,412.9z"/>
<path class="st0" d="M-205.6,372.9c-1.3-1.2-3.3-1.1-4.5,0.1l0,0c-1.2,1.2-1.2,3.2,0.1,4.3l2.7,2.5c1.3,1.2,3.3,1.1,4.5-0.1l0,0
	c1.2-1.2,1.2-3.2-0.1-4.3L-205.6,372.9z"/>
<path class="st0" d="M-163.6,372.9c1.3-1.2,3.3-1.1,4.5,0.1l0,0c1.2,1.2,1.2,3.2-0.1,4.3l-2.7,2.5c-1.3,1.2-3.3,1.1-4.5-0.1l0,0
	c-1.2-1.2-1.2-3.2,0.1-4.3L-163.6,372.9z"/>
<g class="st1">
	<path class="st2" d="M-179,405.5c0-4.4-3.2-8-7.5-8.9c0,0,0,0,0,0c0-6.3-5.3-11.5-11.9-11.5c-2.5,0-4.8,0.7-6.7,2
		c-2.4-3.8-6.8-6.3-11.7-6.3c-7.4,0-13.4,5.6-13.7,12.6c-5.9,0.3-10.5,4.9-10.5,10.6c0,5.6,4.5,10.1,10.1,10.6
		c0.3,0.1,0.6,0.1,0.9,0.1h41.5c0.3,0,0.7,0,1-0.1C-182.7,414.1-179,410.2-179,405.5z"/>
</g>
<g>
	<path class="st0" d="M-227.8,430.1c-0.4,0.9-1.4,1.3-2.3,0.9l0,0c-0.8-0.4-1.2-1.4-0.8-2.3l4.4-9.2c0.4-0.9,1.4-1.3,2.3-0.9l0,0
		c0.8,0.4,1.2,1.4,0.8,2.3L-227.8,430.1z"/>
</g>
<g>
	<path class="st0" d="M-215.8,430.1c-0.4,0.9-1.4,1.3-2.3,0.9l0,0c-0.8-0.4-1.2-1.4-0.8-2.3l4.4-9.2c0.4-0.9,1.4-1.3,2.3-0.9l0,0
		c0.8,0.4,1.2,1.4,0.8,2.3L-215.8,430.1z"/>
</g>
<g>
	<path class="st0" d="M-203.9,430.1c-0.4,0.9-1.4,1.3-2.3,0.9l0,0c-0.8-0.4-1.2-1.4-0.8-2.3l4.4-9.2c0.4-0.9,1.4-1.3,2.3-0.9l0,0
		c0.8,0.4,1.2,1.4,0.8,2.3L-203.9,430.1z"/>
</g>
</svg>
