<?xml version="1.0" encoding="utf-8"?>
<!-- Generator: Adobe Illustrator 20.0.0, SVG Export Plug-In . SVG Version: 6.00 Build 0)  -->
<svg version="1.1" id="Layer_1" xmlns="http://www.w3.org/2000/svg" xmlns:xlink="http://www.w3.org/1999/xlink" x="0px" y="0px"
	 width="108.2px" height="107.7px" viewBox="0 0 108.2 107.7" style="enable-background:new 0 0 108.2 107.7;" xml:space="preserve"
	>
<style type="text/css">
	.st0{fill:#B5B5B5;}
	.st1{fill:#FFD400;}
</style>
<g>
	<path class="st0" d="M39.3,56.7c-0.4,0-0.9-0.1-1.2-0.2l0,0c-6.8-0.6-12-6.1-12-12.8l0,0c0-6.5,5-11.9,11.6-12.7l0,0
		c0.9-7.8,7.7-13.9,16.1-13.9l0,0c5.4,0,10.2,2.6,13.2,6.6l0,0c2.1-1.1,4.4-1.8,6.9-1.8l0,0c7.5,0,13.7,5.7,14.2,12.9l0,0
		c4.7,1.4,8.2,5.6,8.2,10.7l0,0c0,5.7-4.5,10.5-10.3,11.1l0,0c-0.4,0.1-0.8,0.2-1.3,0.2l0,0H39.3V56.7z M39.9,32.1v1l-1.1,0.1
		c-5.8,0.3-10.4,4.9-10.4,10.6l0,0c0,5.5,4.4,10.1,10,10.5l0,0h0.1h0.1c0.2,0.1,0.5,0.1,0.7,0.1l0,0h45.3c0.2,0,0.5,0,0.7-0.1l0,0
		h0.1h0.1c4.6-0.5,8.2-4.2,8.2-8.8l0,0c0-4.3-3.1-7.8-7.3-8.7l0,0l-0.9-0.2v-0.9l0,0c0-6.3-5.3-11.5-11.9-11.5l0,0
		c-2.5,0-4.7,0.7-6.6,2l0,0l-1,0.7l-0.6-1c-2.4-3.9-6.8-6.4-11.8-6.4l0,0C46.3,19.4,40.2,25,39.9,32.1L39.9,32.1z"/>
</g>
<g>
	<path class="st0" d="M80.2,51.2c0-4.8-3.5-8.8-8.2-9.8l0,0c0-7-5.8-12.6-13-12.6c-2.7,0-5.2,0.8-7.3,2.2c-2.6-4.2-7.4-7-12.8-7
		c-8,0-14.6,6.1-15,13.8c-6.4,0.3-11.5,5.4-11.5,11.7c0,6.1,4.9,11.2,11.1,11.7c0.3,0.1,0.7,0.1,1,0.1h45.3c0.4,0,0.7-0.1,1-0.2
		C76.1,60.6,80.2,56.4,80.2,51.2z"/>
</g>
<g>
	<polygon class="st1" points="67.4,76.6 52.4,76.6 64.4,65.2 48,65.1 41,76.6 41,76.6 38.6,80.3 51.2,80.4 42.4,93.5 61.4,80.4 
		61.4,80.4 	"/>
</g>
</svg>
