<?xml version="1.0" encoding="utf-8"?>
<!-- Generator: Adobe Illustrator 19.1.1, SVG Export Plug-In . SVG Version: 6.00 Build 0)  -->
<svg version="1.1" id="Layer_1" xmlns="http://www.w3.org/2000/svg" xmlns:xlink="http://www.w3.org/1999/xlink" x="0px" y="0px"
	 width="108.2px" height="107.7px" viewBox="-251 343.3 108.2 107.7" style="enable-background:new -251 343.3 108.2 107.7;"
	 xml:space="preserve">
<style type="text/css">
	.st0{fill:#FFFFFF;}
</style>
<g>
	<path class="st0" d="M-211.7,406.7c-0.4,0-0.9-0.1-1.2-0.2l0,0c-6.8-0.6-12-6.1-12-12.8l0,0c0-6.5,5-11.9,11.6-12.7l0,0
		c0.9-7.8,7.7-13.9,16.1-13.9l0,0c5.4,0,10.2,2.6,13.2,6.6l0,0c2.1-1.1,4.4-1.8,6.9-1.8l0,0c7.5,0,13.7,5.7,14.2,12.9l0,0
		c4.7,1.4,8.2,5.6,8.2,10.7l0,0c0,5.7-4.5,10.5-10.3,11.1l0,0c-0.4,0.1-0.8,0.2-1.3,0.2l0,0H-211.7L-211.7,406.7z M-211.1,382.1l0,1
		l-1.1,0.1c-5.8,0.3-10.4,4.9-10.4,10.6l0,0c0,5.5,4.4,10.1,10,10.5l0,0l0.1,0l0.1,0c0.2,0.1,0.5,0.1,0.7,0.1l0,0h45.3
		c0.2,0,0.5,0,0.7-0.1l0,0l0.1,0l0.1,0c4.6-0.5,8.2-4.2,8.2-8.8l0,0c0-4.3-3.1-7.8-7.3-8.7l0,0l-0.9-0.2v-0.9v0
		c0-6.3-5.3-11.5-11.9-11.5l0,0c-2.5,0-4.7,0.7-6.6,2l0,0l-1,0.7l-0.6-1c-2.4-3.9-6.8-6.4-11.8-6.4l0,0
		C-204.7,369.4-210.8,375-211.1,382.1L-211.1,382.1z"/>
</g>
<g>
	<path class="st0" d="M-170.8,401.2c0-4.8-3.5-8.8-8.2-9.8c0,0,0,0,0,0c0-7-5.8-12.6-13-12.6c-2.7,0-5.2,0.8-7.3,2.2
		c-2.6-4.2-7.4-7-12.8-7c-8,0-14.6,6.1-15,13.8c-6.4,0.3-11.5,5.4-11.5,11.7c0,6.1,4.9,11.2,11.1,11.7c0.3,0.1,0.7,0.1,1,0.1h45.3
		c0.4,0,0.7-0.1,1-0.2C-174.9,410.6-170.8,406.4-170.8,401.2z"/>
</g>
<g>
	<polygon class="st0" points="-198.8,425.8 -206.3,425.8 -200.3,415.2 -208.5,415.1 -212,425.8 -212,425.8 -213.2,429.2 
		-206.9,429.3 -211.3,441.5 -201.8,429.3 -201.8,429.3 	"/>
</g>
</svg>
