<?xml version="1.0" encoding="utf-8"?>
<!-- Generator: Adobe Illustrator 20.0.0, SVG Export Plug-In . SVG Version: 6.00 Build 0)  -->
<svg version="1.1" id="Layer_1" xmlns="http://www.w3.org/2000/svg" xmlns:xlink="http://www.w3.org/1999/xlink" x="0px" y="0px"
	 viewBox="0 0 44 44.7" style="enable-background:new 0 0 44 44.7;" xml:space="preserve">
<style type="text/css">
	.st0{fill:#6BE55A;}
</style>
<g>
	<path class="st0" d="M42.2,23.4c0,0.6-0.2,1.1-0.7,1.7c-0.9,1-2.6,1.6-4.3,1.6H6.5c-1.8,0-3.5-0.6-4.3-1.6c-0.9-1-0.9-2.3,0-3.3
		L17.5,4.4c0.9-1,2.6-1.6,4.3-1.6s3.5,0.6,4.3,1.6l15.4,17.3C42,22.3,42.2,22.9,42.2,23.4z"/>
</g>
<path class="st0" d="M32.6,26.7v13.5c0,2-2.2,3.8-4.9,3.8H16c-2.7,0-4.9-1.7-4.9-3.8V26.7H32.6z"/>
</svg>
