<?xml version="1.0" encoding="utf-8"?>
<!-- Generator: Adobe Illustrator 20.0.0, SVG Export Plug-In . SVG Version: 6.00 Build 0)  -->
<svg version="1.1" id="Layer_1" xmlns="http://www.w3.org/2000/svg" xmlns:xlink="http://www.w3.org/1999/xlink" x="0px" y="0px"
	 viewBox="0 0 44 44.7" style="enable-background:new 0 0 44 44.7;" xml:space="preserve">
<style type="text/css">
	.st0{fill:#5E9EFF;}
</style>
<g>
	<path class="st0" d="M36.2,37.8c-0.4,0.4-0.9,0.6-1.7,0.7c-1.4,0-3-0.7-4.2-1.9L8.6,14.9c-1.2-1.2-2-2.9-1.9-4.2
		c0-1.4,0.9-2.3,2.3-2.3l23.2-1.5c1.4,0,3,0.7,4.2,1.9s2,2.9,1.9,4.2l-1.4,23.1C36.8,36.9,36.6,37.5,36.2,37.8z"/>
</g>
<path class="st0" d="M27.1,33.4l-9.6,9.6c-1.4,1.4-4.2,1.1-6.1-0.8l-8.3-8.3c-1.9-1.9-2.2-4.7-0.8-6.2l9.5-9.5L27.1,33.4z"/>
</svg>
