<?xml version="1.0" encoding="utf-8"?>
<!-- Generator: Adobe Illustrator 20.0.0, SVG Export Plug-In . SVG Version: 6.00 Build 0)  -->
<svg version="1.1" id="Layer_1" xmlns="http://www.w3.org/2000/svg" xmlns:xlink="http://www.w3.org/1999/xlink" x="0px" y="0px"
	 viewBox="0 0 44 44.7" style="enable-background:new 0 0 44 44.7;" xml:space="preserve">
<style type="text/css">
	.st0{fill:#666666;}
</style>
<g>
	<path class="st0" d="M21.7,43.8c-0.6,0-1.1-0.2-1.7-0.7c-1-0.9-1.6-2.6-1.6-4.3V8c0-1.8,0.6-3.5,1.6-4.3c1-0.9,2.3-0.9,3.3,0
		L40.8,19c1,0.9,1.6,2.6,1.6,4.3s-0.6,3.5-1.6,4.3L23.5,43C22.8,43.5,22.3,43.8,21.7,43.8z"/>
</g>
<path class="st0" d="M18.5,34.1H4.9c-2,0-3.8-2.2-3.8-4.9V17.5c0-2.7,1.7-4.9,3.8-4.9h13.4V34.1z"/>
</svg>
