<?xml version="1.0" encoding="utf-8"?>
<!-- Generator: Adobe Illustrator 20.0.0, SVG Export Plug-In . SVG Version: 6.00 Build 0)  -->
<svg version="1.1" id="Layer_1" xmlns="http://www.w3.org/2000/svg" xmlns:xlink="http://www.w3.org/1999/xlink" x="0px" y="0px"
	 viewBox="0 0 44 44.7" style="enable-background:new 0 0 44 44.7;" xml:space="preserve">
<style type="text/css">
	.st0{fill:#FF5E61;}
</style>
<g>
	<path class="st0" d="M1.4,23.3c0-0.6,0.2-1.1,0.7-1.7c0.9-1,2.6-1.6,4.3-1.6h30.7c1.8,0,3.5,0.6,4.3,1.6c0.9,1,0.9,2.3,0,3.3
		L26.2,42.3c-0.9,1-2.6,1.6-4.3,1.6s-3.5-0.6-4.3-1.6L2.1,25C1.7,24.4,1.4,23.8,1.4,23.3z"/>
</g>
<path class="st0" d="M11.1,20V6.5c0-2,2.2-3.8,4.9-3.8h11.7c2.7,0,4.9,1.7,4.9,3.8V20H11.1z"/>
</svg>
