<?xml version="1.0" encoding="utf-8"?>
<!-- Generator: Adobe Illustrator 20.0.0, SVG Export Plug-In . SVG Version: 6.00 Build 0)  -->
<svg version="1.1" id="Layer_1" xmlns="http://www.w3.org/2000/svg" xmlns:xlink="http://www.w3.org/1999/xlink" x="0px" y="0px"
	 viewBox="0 0 44 44.7" style="enable-background:new 0 0 44 44.7;" xml:space="preserve">
<style type="text/css">
	.st0{opacity:0.35;}
	.st1{fill:#FFFFFF;}
</style>
<g class="st0">
	<g>
		<path d="M21.7,42.8c-0.6,0-1.1-0.2-1.7-0.7c-1-0.9-1.6-2.6-1.6-4.3V7c0-1.8,0.6-3.5,1.6-4.3c1-0.9,2.3-0.9,3.3,0L40.8,18
			c1,0.9,1.6,2.6,1.6,4.3s-0.6,3.5-1.6,4.3L23.5,42C22.8,42.5,22.3,42.8,21.7,42.8z"/>
	</g>
	<path d="M19.5,33.1H5.9c-2,0-3.8-2.2-3.8-4.9V16.5c0-2.7,1.7-4.9,3.8-4.9h13.4v21.5H19.5z"/>
</g>
<g>
	<g>
		<path class="st1" d="M21.9,39.5c-0.6,0-1-0.2-1.6-0.6c-0.9-0.8-1.5-2.2-1.5-3.6V9.5c0-1.5,0.6-2.9,1.5-3.6c0.9-0.8,2.2-0.8,3.1,0
			l16.4,12.8c0.9,0.8,1.5,2.2,1.5,3.6s-0.6,2.9-1.5,3.6L23.6,38.8C22.9,39.2,22.5,39.5,21.9,39.5z"/>
	</g>
	<path class="st1" d="M19.8,31.4H7.1c-1.9,0-3.6-1.8-3.6-4.1v-9.8c0-2.3,1.6-4.1,3.6-4.1h12.6v18H19.8z"/>
</g>
</svg>
