<?xml version="1.0" encoding="utf-8"?>
<!-- Generator: Adobe Illustrator 20.0.0, SVG Export Plug-In . SVG Version: 6.00 Build 0)  -->
<svg version="1.1" id="Layer_1" xmlns="http://www.w3.org/2000/svg" xmlns:xlink="http://www.w3.org/1999/xlink" x="0px" y="0px"
	 viewBox="0 0 44 44.7" style="enable-background:new 0 0 44 44.7;" xml:space="preserve">
<style type="text/css">
	.st0{fill:#FF985F;}
</style>
<g>
	<path class="st0" d="M7.3,37.7C7,37.3,6.7,36.8,6.7,36c0-1.4,0.7-3,1.9-4.2l21.7-21.7c1.2-1.2,2.9-2,4.2-1.9c1.4,0,2.3,0.9,2.3,2.3
		l1.5,23.2c0,1.4-0.7,3-1.9,4.2s-2.9,2-4.2,1.9L9.1,38.4C8.3,38.3,7.7,38.1,7.3,37.7z"/>
</g>
<path class="st0" d="M11.8,28.6L2.3,19c-1.4-1.4-1.1-4.2,0.8-6.1l8.3-8.3c1.9-1.9,4.7-2.2,6.2-0.8l9.5,9.5L11.8,28.6z"/>
</svg>
